<?xml version="1.0" encoding="UTF-8"?>
<svg id="Layer_1" data-name="Layer 1" xmlns="http://www.w3.org/2000/svg" xmlns:xlink="http://www.w3.org/1999/xlink" viewBox="0 0 352.66 272.78">
  <defs>
    <style>
      .cls-1 {
        fill: url(#linear-gradient);
      }

      .cls-2 {
        fill: url(#Fade_to_Black_2-2);
      }

      .cls-2, .cls-3 {
        opacity: .5;
      }

      .cls-4 {
        fill: #fedbb5;
      }

      .cls-5 {
        fill: #e5b4a6;
      }

      .cls-6 {
        fill: #58595b;
      }

      .cls-7 {
        fill: url(#Fade_to_Black_2);
      }

      .cls-7, .cls-8, .cls-9, .cls-10, .cls-11, .cls-12, .cls-13, .cls-14, .cls-15 {
        opacity: .4;
      }

      .cls-3 {
        fill: url(#linear-gradient-10);
      }

      .cls-8 {
        fill: url(#linear-gradient-6);
      }

      .cls-9 {
        fill: url(#linear-gradient-3);
      }

      .cls-10 {
        fill: url(#linear-gradient-4);
      }

      .cls-11 {
        fill: url(#linear-gradient-2);
      }

      .cls-12 {
        fill: url(#linear-gradient-7);
      }

      .cls-13 {
        fill: url(#linear-gradient-5);
      }

      .cls-14 {
        fill: url(#linear-gradient-8);
      }

      .cls-15 {
        fill: url(#linear-gradient-9);
      }
    </style>
    <linearGradient id="linear-gradient" x1="113.33" y1="12.6" x2="205.09" y2="171.53" gradientUnits="userSpaceOnUse">
      <stop offset="0" stop-color="#18bab6"/>
      <stop offset=".5" stop-color="#00adee"/>
      <stop offset="1" stop-color="#0095c4"/>
    </linearGradient>
    <linearGradient id="linear-gradient-2" x1="202.6" y1="139.8" x2="125.2" y2="5.74" gradientUnits="userSpaceOnUse">
      <stop offset="0" stop-color="#fdfdfe" stop-opacity="0"/>
      <stop offset=".11" stop-color="#fdfdfe" stop-opacity=".17"/>
      <stop offset=".3" stop-color="#fdfdfe" stop-opacity=".42"/>
      <stop offset=".47" stop-color="#fdfdfe" stop-opacity=".63"/>
      <stop offset=".64" stop-color="#fdfdfe" stop-opacity=".79"/>
      <stop offset=".78" stop-color="#fdfdfe" stop-opacity=".9"/>
      <stop offset=".91" stop-color="#fdfdfe" stop-opacity=".97"/>
      <stop offset="1" stop-color="#fdfdfe"/>
    </linearGradient>
    <linearGradient id="linear-gradient-3" x1="179.77" y1="138.97" x2="124" y2="42.38" xlink:href="#linear-gradient-2"/>
    <linearGradient id="linear-gradient-4" x1="172.08" y1="146.02" x2="140.95" y2="92.11" xlink:href="#linear-gradient-2"/>
    <linearGradient id="linear-gradient-5" x1="173.37" y1="156.9" x2="153.99" y2="123.33" xlink:href="#linear-gradient-2"/>
    <linearGradient id="linear-gradient-6" x1="140.65" y1="153.85" x2="140.65" y2="189.21" gradientUnits="userSpaceOnUse">
      <stop offset="0" stop-color="#231f20"/>
      <stop offset=".03" stop-color="#231f20" stop-opacity=".9"/>
      <stop offset=".22" stop-color="#231f20" stop-opacity=".4"/>
      <stop offset=".42" stop-color="#231f20" stop-opacity=".1"/>
      <stop offset=".65" stop-color="#231f20" stop-opacity="0"/>
    </linearGradient>
    <linearGradient id="Fade_to_Black_2" data-name="Fade to Black 2" x1="180.4" y1="150.51" x2="180.4" y2="168.54" gradientUnits="userSpaceOnUse">
      <stop offset="0" stop-color="#231f20"/>
      <stop offset="1" stop-color="#231f20" stop-opacity="0"/>
    </linearGradient>
    <linearGradient id="linear-gradient-7" x1="189.1" y1="103.79" x2="189.1" y2="89.05" gradientUnits="userSpaceOnUse">
      <stop offset="0" stop-color="#231f20"/>
      <stop offset=".03" stop-color="#231f20" stop-opacity=".95"/>
      <stop offset=".51" stop-color="#231f20" stop-opacity=".26"/>
      <stop offset=".81" stop-color="#231f20" stop-opacity="0"/>
    </linearGradient>
    <linearGradient id="linear-gradient-8" x1="221.34" y1="114.67" x2="221.34" y2="79.01" gradientUnits="userSpaceOnUse">
      <stop offset="0" stop-color="#231f20"/>
      <stop offset=".18" stop-color="#231f20" stop-opacity=".48"/>
      <stop offset=".38" stop-color="#231f20" stop-opacity=".12"/>
      <stop offset=".58" stop-color="#231f20" stop-opacity="0"/>
    </linearGradient>
    <linearGradient id="Fade_to_Black_2-2" data-name="Fade to Black 2" x1="254.53" y1="142.77" x2="242.22" y2="121.44" xlink:href="#Fade_to_Black_2"/>
    <linearGradient id="linear-gradient-9" x1="264.45" y1="136.91" x2="246" y2="104.96" xlink:href="#linear-gradient-2"/>
    <linearGradient id="linear-gradient-10" x1="216.55" y1="131.51" x2="243.4" y2="116" gradientUnits="userSpaceOnUse">
      <stop offset="0" stop-color="#231f20"/>
      <stop offset=".31" stop-color="#231f20" stop-opacity=".5"/>
      <stop offset=".67" stop-color="#231f20" stop-opacity=".13"/>
      <stop offset="1" stop-color="#231f20" stop-opacity="0"/>
    </linearGradient>
  </defs>
  <g>
    <path class="cls-6" d="m.06,272.13l-.06-38.1h13.6c2.23,0,4.29.49,6.18,1.46,1.9.98,3.4,2.29,4.51,3.93,1.11,1.64,1.67,3.44,1.67,5.39s-.56,3.7-1.67,5.36c-1.11,1.66-2.62,2.98-4.51,3.96-1.9.98-3.96,1.46-6.18,1.46H2.7v16.53H.06Zm2.64-19.29h10.9c1.76,0,3.38-.36,4.87-1.08,1.49-.72,2.67-1.7,3.55-2.93.88-1.23,1.32-2.57,1.32-4.02s-.44-2.84-1.32-4.07c-.88-1.23-2.06-2.21-3.55-2.93-1.49-.72-3.11-1.08-4.87-1.08H2.64l.06,16.12Z"/>
    <path class="cls-6" d="m79.61,254.43h-22.51v17.7h-2.7v-38.1h2.7v17.7h22.51v-17.7h2.64v38.1h-2.64v-17.7Z"/>
    <path class="cls-6" d="m129.32,272.54c-3.48,0-6.7-.87-9.67-2.61-2.97-1.74-5.31-4.1-7.03-7.09-1.72-2.99-2.58-6.24-2.58-9.76s.86-6.77,2.58-9.76c1.72-2.99,4.06-5.36,7.03-7.09,2.97-1.74,6.2-2.61,9.67-2.61s6.7.87,9.67,2.61c2.97,1.74,5.31,4.1,7.04,7.09,1.72,2.99,2.58,6.24,2.58,9.76s-.86,6.77-2.58,9.76c-1.72,2.99-4.06,5.35-7.04,7.09-2.97,1.74-6.19,2.61-9.67,2.61Zm0-36.23c-3.01,0-5.79.75-8.32,2.26-2.54,1.5-4.56,3.54-6.07,6.1-1.5,2.56-2.26,5.37-2.26,8.41s.75,5.85,2.26,8.41c1.5,2.56,3.53,4.59,6.07,6.1,2.54,1.5,5.31,2.26,8.32,2.26s5.78-.75,8.32-2.26c2.54-1.5,4.55-3.54,6.04-6.1,1.49-2.56,2.23-5.36,2.23-8.41s-.74-5.85-2.23-8.41c-1.49-2.56-3.5-4.59-6.04-6.1-2.54-1.5-5.32-2.26-8.32-2.26Z"/>
    <path class="cls-6" d="m176.27,272.13v-38.1h24.68v2.7h-22.04v15.01h17.18v2.7h-17.18v14.95h22.04v2.75h-24.68Z"/>
    <path class="cls-6" d="m233.72,241.18v30.95h-2.64v-38.57l26.38,31.54v-31.07h2.64v38.75l-26.38-31.6Z"/>
    <path class="cls-6" d="m290.94,272.13v-38.1h2.64v38.1h-2.64Z"/>
    <path class="cls-6" d="m352.66,234.03l-13.6,19.05,13.6,19.05h-3.22l-11.96-16.83-11.96,16.83h-3.22l13.6-19.05-13.6-19.05h3.22l11.96,16.82,11.96-16.82h3.22Z"/>
  </g>
  <path class="cls-1" d="m265.94,128.58c-.53-2.39-1.74-4.59-3.61-6.54-.72-.75-1.52-1.46-2.39-2.1-.42-.31-.87-.6-1.33-.89-.57-.36-1.16-.7-1.81-1.03-2.38-1.22-4.41-2.45-6.19-3.77-.72-.53-1.42-1.09-2.08-1.66-1.59-1.39-2.66-2.58-3.46-3.84-.26-.4-.49-.84-.71-1.26-.09-.18-.23-.33-.39-.45-.29-.21-.66-.3-1.03-.24-.57.11-1.01.57-1.08,1.15-.05.45-.05.93.01,1.42.04.29-.12.57-.39.69-.06.03-.13.04-.19.05-.38.04-.72.25-.94.57-.22.32-.28.71-.19,1.08.08.32.19.55.28.73l.08.16c.06.11.12.23.18.34.18.34.36.68.58,1,.42.61.89,1.22,1.45,1.87.18.21.21.51.08.75-.13.24-.4.38-.67.34-3.15-.43-5.98-1.14-8.61-2.11-.3-.11-.61-.22-.9-.34-2.36-1,1.9-5.24,3.85-8.25,8.55-13.15,10.32-28.21,10.39-43.45.07-14.73-1.52-29.26-4.45-43.6v-.02c-1.91-12.02-3.53-16.53-4.55-18.2-.22-.44-.46-.72-.71-.85-.28-.19-.43-.1-.43-.1-.55.02-1.18.51-1.94,1.3-3.19,3.35-3.01,7.34-2.13,11.51,4.03,18.94,7.06,37.99,5.68,57.45-.95,13.42-3.45,26.34-12.83,36.85-.56.63-1.17,1.22-1.78,1.82-.7.69-1.79,2.03-2.6,1.47-1.08-.75-.12-2.29.22-3.09,5.49-12.87,7.07-26.32,6.23-40.18-.02-.32-.05-.64-.07-.96v-.02c-.01-.26-.04-.5-.06-.75-.14-1.84-.31-3.66-.54-5.48-2.36-21.99-5.2-23.42-5.2-23.42h0c-.19-.17-.42-.3-.73-.36-1.49-.31-2.3,1-2.96,1.99-2.98,4.46-1.66,9.21-.7,13.91,3.37,16.46,3.42,32.77-2.36,48.78-.53,1.46-1.16,2.88-1.83,4.28-.71,1.49-1.17,3.35-3.59,2.55-2.27-.75-1.63-2.47-1.34-4.04.76-3.99,1.37-7.99,1.75-12v.02c.05-.4.07-.78.1-1.16.06-.69.1-1.39.14-2.08.03-.58.06-1.15.09-1.71.01-.29.03-.57.03-.86.46-12.71-1.68-18.49-2.49-20.2-.09-.21-.19-.4-.3-.57h0s0,0,0,0c-.84-1.26-2.23-1.11-3.43.08-2.21,2.18-3.43,4.76-2.87,8.01,1.64,9.46.68,18.83-1.08,28.15-.24,1.25-.8,3.53-3.47,2.94-1.82-.4-2.24-1.18-2.34-2.76.02-1.19,0-2.38-.04-3.57,0-.03,0-.06,0-.09h0c0-.17-.02-.34-.02-.5h0c0-.09-.01-.17-.02-.25-.08-1.62-.21-3.25-.41-4.88-.02-.16-.05-.31-.07-.47-1.02-9.18-2.35-10.07-2.35-10.07-.85-1.11-2.18-.92-3.33.22-2.21,2.18-3.33,4.75-2.87,8.01.34,2.38.25,1.65.49,3.73.19,1.07.39,3.02.41,3.64-.05.55-.19,1.03-.53,1.39-1.13,1.21-2.95-.03-4.33-.6-26.76-11.07-49.66-26.61-69.65-46.27-7.88-8.03-21.27-24.24-21.27-24.24h0c-.5-.58-1.12-.91-2.07-.5-1.75.75-1.7,2.99-1.86,4.87-.32,3.77,1.7,6.5,3.89,9.06,30.19,35.22,67.03,60.53,111.5,73.19l8,2.12c.09.02.19.05.28.07.02,0,.03,0,.04.01l6.89,1.83.19.05c-.23.07-.48.12-.75.17-7.58,1.5-22.58-1.26-34.63-4.07-5.96-1.25-11.82-2.77-17.55-4.58-.26-.08-.41-.12-.41-.12h0c-22.26-7.09-42.65-18.58-60.49-36.1-1.69-1.66-3.25-3.45-4.79-5.26-1.41-1.68-4.32-5.19-5.33-6.4-.11-.16-.23-.3-.35-.43h0s0,0,0,0c-.3-.31-.67-.51-1.2-.39-1.24.29-1.6,1.57-1.83,2.65-.91,4.34.47,7.99,3.39,11.25,18.27,20.48,41.2,33.56,66.95,42.14,14.62,4.87,29.66,7.83,45,9.72-9.15,2.96-18.56,3.86-28.05,3.62-18.37-.46-35.6-4.87-51.79-12.74-5.97-3.07-11.53-6.49-12.99-7.41-.84-.57-1.71-.92-2.57-.26-1.61,1.25-.5,3.44.02,5.15.99,3.29,3.28,5.56,6.25,7.13,26.38,13.95,54.23,19.53,83.88,14.58,3-.5,5.85-1.05,8.99-2.11-4.96,4.29-10.7,7.09-16.73,9.3-18.57,6.79-37.02,6.52-55.4,1.92-5.9-1.58-12.74-4.15-12.74-4.15h0c-.99-.43-1.97-.58-2.73.51-1.34,1.92-.17,3.91.99,5.73,2.74,4.27,8.04,4.69,12.23,6.14,1.43.46-2.47,3.06-3.72,4.02-6.08,4.65-12.03,8.9-18.08,13.4l-3.96,2.92h0c-.68.47-1.28,1-.97,1.98.36,1.11,1.51,1.31,2.63,1.54,4.33.9,8.03-.54,11.45-3.1,7.33-5.49,14.8-10.82,21.97-16.52,2.73-2.17,5.21-1.99,8.94-1.03-9.33,7.03-18.06,13.62-26.8,20.2-8.87,6.67-17.74,13.34-26.61,20l-5.86,4.34c-.09.06-.17.12-.25.19l-.09.06h0c-.5.4-.87.85-.76,1.43.24,1.32,1.79,1.65,3.06,1.87,5.24.9,8.49-1.07,12.07-3.76,17.93-13.46,35.92-26.83,53.75-40.42,4-3.05,8.11-4.77,13.88-4.12-4.91,3.67-9.63,7.2-14.28,10.68l-12.64,9.35c-.09.06-.18.13-.26.2h0c-.67.53-1.14,1.15-.88,2.07.48,1.67,2.49,1.87,4.2,2.13,3.14.47,5.8-.64,8.27-2.48,1.42-1.06,2.85-2.1,4.28-3.13h0s19.3-15.33,19.3-15.33c0,0,4.56-3.26,9.84-6.25.47-.29.94-.59,1.42-.88.2-.09.7-.32,1.46-.68.57-.29,1.14-.58,1.7-.85.83-.42,1.79-.93,2.87-1.52,3.11-1.29,12.02-5.45,19.38-13.29,3.5-2.7,8.43-6.23,12.27-7.93h0s.02,0,.02,0c.29-.13.58-.25.86-.35h0s.02,0,.03-.01c.19-.07.37-.13.55-.19l.49-.19c1.39-.39,3.65-.54,3.95,2.52.05.75.04,1.52-.05,2.33-.06.61-.18,1.26-.27,1.78-.09.5.12,1,.52,1.3.06.05.13.09.2.12.53.26,1.17.14,1.57-.3.15-.16.3-.33.45-.49,1.89-1.99,3.81-3.37,5.85-4.21,2.98-1.23,6-1.24,9.21-.01,1.53.58,2.97,1.38,4.4,2.43.61.45,1.22.95,1.83,1.5.36.33.72.69,1.04,1.01l.05.05.26.26s.1.09.15.13c.3.22.69.31,1.07.23.44-.1.8-.41.96-.83.03-.08.06-.16.09-.24.91-2.7,1.1-5.18.57-7.6Z"/>
  <path class="cls-4" d="m208.93,99.63c-.22,1.34-.45,2.67-.7,4.01.25-1.34.48-2.67.7-4.01h0Z"/>
  <path class="cls-4" d="m232.66,114.5c.1.04.19.08.29.11-.1-.04-.2-.07-.29-.11"/>
  <polyline class="cls-4" points="221.83 106.28 221.83 106.28 221.83 106.28"/>
  <path class="cls-4" d="m221.91,106.09s-.02.04-.02.06c0-.02.02-.04.02-.06"/>
  <path class="cls-4" d="m236.63,106.07s-.03.05-.05.07c.02-.02.03-.05.05-.07"/>
  <path class="cls-4" d="m213.16,105.13c-.17.35-.32.72-.48,1.07.17-.35.32-.72.48-1.07"/>
  <polyline class="cls-4" points="197.24 104.34 197.25 104.34 197.24 104.34"/>
  <polyline class="cls-4" points="194.85 103.26 194.86 103.26 194.85 103.26"/>
  <polyline class="cls-4" points="194.84 103.25 194.85 103.25 194.84 103.25"/>
  <polyline class="cls-4" points="194.83 103.23 194.84 103.23 194.83 103.23"/>
  <polyline class="cls-4" points="194.82 103.21 194.83 103.22 194.82 103.21"/>
  <path class="cls-4" d="m194.81,103.19s0,.01.01.02c0,0,0-.01-.01-.02"/>
  <polyline class="cls-4" points="194.37 101.52 194.37 101.53 194.37 101.52"/>
  <path class="cls-4" d="m200.33,100.51c-.05.27-.1.54-.15.81.05-.27.1-.54.15-.81"/>
  <path class="cls-4" d="m185.64,98.66c-.18.19-.37.32-.58.4.21-.08.4-.21.58-.4"/>
  <path class="cls-5" d="m194.86,103.26c.15.2.34.38.58.53h0c-.24-.15-.43-.32-.58-.53m0-.02s0,0,0,.01c0,0,0,0,0-.01m-.01-.01h0s0,0,0,0m0-.01s0,0,0,0c0,0,0,0,0,0m0,0s0,0,0,0c0,0,0,0,0,0m-.01-.02s0,0,0,0c0,0,0,0,0,0m-.43-1.66s0,0,0,0c0,0,0,0,0,0m0-.03h0s0,.01,0,.02c0,0,0-.01,0-.02m-11.6-2.77s.02,0,.02.01c.56.24,1.12.43,1.64.43.22,0,.43-.03.62-.11-.2.08-.41.11-.62.11-.53,0-1.1-.2-1.66-.44m11.52-1.75s0,0,0,.01c0,0,0,0,0-.01"/>
  <path class="cls-5" d="m232.95,114.61s.09.04.14.05h0s-.09-.04-.14-.05m-10.66-4.3s0,0,0,0c0,0,0,0,0,0m-1.62-.87c0,.38.13.72.5.98.13.09.27.13.42.13.22,0,.45-.09.69-.24-.23.15-.46.24-.69.24-.15,0-.29-.04-.42-.13-.37-.25-.5-.6-.5-.98m.78-2.26s-.04.1-.06.15c.02-.05.04-.1.06-.15m.38-.9c-.12.3-.25.6-.38.9.13-.3.25-.6.38-.9m.05-.13s-.04.08-.05.13c.02-.04.04-.08.05-.13m14.7,0s0,.01-.01.02c0,0,0-.01.01-.02m.06-.09s0,.01-.01.02c0,0,0-.01.01-.02m-14.71,0s-.01.04-.02.05c0-.02.01-.04.02-.05m-14.01-.4c0,.86.34,1.61,1.65,2.04.4.13.75.19,1.06.19,1.1,0,1.63-.78,2.05-1.67-.43.9-.96,1.67-2.05,1.67-.3,0-.65-.06-1.06-.19-1.3-.43-1.65-1.18-1.65-2.04m-10.69-1.3h0,0m2.13-.87c-.39.51-.97.89-1.84.89-.09,0-.18,0-.27-.01.09,0,.18.01.27.01.87,0,1.45-.37,1.84-.89m16.9-6.43s0,0-.01,0c-.39,1.27-.8,2.55-1.25,3.82-.53,1.46-1.16,2.88-1.83,4.28h0c.67-1.4,1.3-2.82,1.83-4.28.46-1.27.88-2.54,1.27-3.82m-15.22-.71c-.21,1.4-.45,2.79-.71,4.19.26-1.39.5-2.79.71-4.19h0m34.13-6.69s0,0,0,0c-1.91,6.28-4.89,12.2-9.62,17.5-.56.63-1.17,1.22-1.78,1.82h0c.61-.59,1.21-1.19,1.78-1.82,4.73-5.3,7.71-11.22,9.63-17.5"/>
  <path class="cls-11" d="m89.1,26.88c-.24,0-.5.06-.79.18-1.24.54-1.58,1.83-1.72,3.2,6.66,8.73,32.96,40.92,74.33,63,0,0,40.51,21.38,81.25,23.69-3.15-.43-5.98-1.14-8.61-2.11-.16-.06-.31-.11-.47-.17h0c-14.8-3.2-27.42-7.2-36.35-10.4.17.04.34.06.49.08-.16-.01-.34-.04-.52-.08-.54-.12-.96-.27-1.28-.47-7.06-2.58-11.56-4.56-12.64-5.05-.52-.22-1.03-.49-1.49-.68-26.76-11.07-49.66-26.61-69.65-46.27-7.88-8.03-21.27-24.24-21.27-24.24h0c-.34-.4-.75-.68-1.28-.68"/>
  <path class="cls-9" d="m92.05,61.05c-.09,0-.19.01-.3.04-1.24.29-1.6,1.57-1.83,2.65-.04.19-.08.39-.11.58,20.68,28.02,48.44,39.47,48.44,39.47,27.71,13.05,50.45,15.69,64.3,15.69,5.73,0,9.94-.45,12.35-.8-1.1.12-2.31.18-3.61.18-8.12,0-19.73-2.23-29.42-4.49-5.96-1.25-11.82-2.77-17.55-4.58-.26-.08-.41-.12-.41-.12h0c-22.26-7.09-42.65-18.58-60.49-36.1-1.69-1.66-3.25-3.45-4.79-5.26-1.41-1.68-4.32-5.19-5.33-6.4-.11-.16-.23-.3-.35-.43h0s0,0,0,0c-.24-.25-.53-.43-.9-.43"/>
  <path class="cls-10" d="m110.86,109.72c-.33,0-.66.1-.99.36-1.4,1.09-.74,2.89-.21,4.46,10.37,6.29,34.15,18.54,62.31,18.54,10.64,0,21.89-1.74,33.29-6.21-8.23,2.67-16.68,3.66-25.2,3.66-.95,0-1.9-.01-2.85-.04-18.37-.46-35.6-4.87-51.79-12.74-5.97-3.07-11.53-6.49-12.99-7.41-.52-.35-1.04-.62-1.57-.62"/>
  <path class="cls-13" d="m207.16,136.32c-4.52,3.46-9.59,5.86-14.9,7.8-9.96,3.64-19.89,5.25-29.79,5.25-8.56,0-17.09-1.2-25.61-3.33-5.9-1.58-12.74-4.15-12.74-4.15h0c-.43-.19-.86-.32-1.27-.32-.53,0-1.03.22-1.45.84-.62.89-.7,1.8-.5,2.7,6.54,3.04,20.57,8.44,37.68,8.44,14.83,0,31.98-4.06,48.58-17.23"/>
  <path class="cls-8" d="m163.05,157.53c-16.07,0-28.22-3.25-29.76-3.68.45.13.89.27,1.33.42,1.43.46-2.47,3.06-3.72,4.02-4.49,3.44-8.92,6.66-13.36,9.92h13.64c4.3-3.18,8.58-6.37,12.76-9.7,1.55-1.24,3.03-1.71,4.7-1.71,1.26,0,2.64.27,4.24.69-9.33,7.03-18.06,13.62-26.8,20.2-5.11,3.84-10.22,7.68-15.33,11.52h13.72c12.34-9.23,24.67-18.47,36.92-27.81,2.83-2.15,5.71-3.64,9.19-4.1-2.58.17-5.1.24-7.52.24Z"/>
  <path class="cls-7" d="m160.17,168.54h13.26l9.79-7.78s4.56-3.26,9.84-6.25c.47-.29.94-.59,1.42-.88.2-.09.7-.32,1.46-.68.57-.29,1.14-.58,1.7-.85.86-.44,1.87-.97,2.99-1.59-9.45,3.96-19.13,5.89-28.09,6.64.12,0,.25,0,.37,0,.75,0,1.53.04,2.34.13-4.91,3.67-9.63,7.2-14.28,10.68l-.8.59Z"/>
  <path class="cls-12" d="m194.37,101.5c.02-1.19,0-2.38-.04-3.57v-.09s0,0,0,0c0-.17-.02-.34-.02-.5h0s-.02-.25-.02-.25c-.05-1-.13-2-.22-3.01-3.16-1.33-6.14-3.03-8.89-5.03.02.28.03.56.07.86.34,2.38.25,1.65.49,3.73.19,1.07.39,3.02.41,3.64-.05.55-.19,1.03-.53,1.39-.35.37-.76.51-1.2.51-.53,0-1.1-.2-1.66-.44,1.05.47,5.56,2.46,12.67,5.06-.76-.47-1-1.18-1.07-2.29Z"/>
  <path class="cls-14" d="m245.94,79.01c-2.96,4.12-6.6,7.73-10.77,10.63-1.91,6.28-4.89,12.2-9.62,17.5-.56.63-1.17,1.22-1.78,1.82-.59.57-1.44,1.61-2.18,1.61-.15,0-.29-.04-.42-.13-1.08-.75-.12-2.29.22-3.09,1.77-4.15,3.13-8.36,4.14-12.63-2.96,1.11-6.07,1.89-9.28,2.33-.39,1.27-.8,2.55-1.25,3.82-.53,1.46-1.16,2.88-1.83,4.28-.59,1.24-1.01,2.74-2.54,2.74-.3,0-.65-.06-1.06-.19-2.27-.75-1.63-2.47-1.34-4.04.39-2.08.75-4.16,1.05-6.25-2.82-.09-5.58-.45-8.25-1.07-.25,1.67-.54,3.33-.86,4.99-.21,1.11-.68,3.04-2.66,3.04-.24,0-.5-.03-.78-.09,8.93,3.21,21.54,7.21,36.35,10.41h0c-.15-.06-.29-.11-.43-.17-2.36-1,1.9-5.24,3.85-8.25,5.49-8.45,8.18-17.68,9.42-27.25Z"/>
  <path class="cls-2" d="m243.72,124.81c-1.85,0-3.72.18-5.55.51-.35.06-.69.09-1.01.09-.52,0-1.01-.08-1.47-.22.07.09.15.18.22.28.8,1.12,1.22,2.34,1.38,3.61.2.22.37.49.51.84h0s0,0,0,.02c0,0,0,0,0,0,0,0,0,0,0,.01,0,0,0,0,0,0,0,0,0,0,0,.01,0,0,0,0,0,0,0,0,0,0,0,.01,0,0,0,0,0,0,0,0,0,0,0,.01,0,0,0,0,0,0,0,0,0,0,0,.01,0,0,0,0,0,0,0,0,0,0,0,.01,0,0,0,0,0,0,0,0,0,0,0,0,0,0,0,0,0,0,0,0,0,0,0,0,0,0,0,0,0,0,0,0,0,0,0,.01,0,0,0,0,0,0,0,0,0,0,0,0h0s0,.02,0,.02c0,0,0,0,0,.01,0,0,0,0,0,0,0,0,0,0,0,.01,0,0,0,0,0,0,0,0,0,0,0,0,0,0,0,0,0,0,0,0,0,0,0,.01,0,0,0,0,0,0,0,0,0,0,0,.01,0,0,0,0,0,0,0,0,0,0,0,.01,0,0,0,0,0,0,0,0,0,0,0,0t0,0s0,.01,0,.02c0,0,0,0,0,0,0,0,0,0,0,.02,0,0,0,0,0,0,0,0,0,0,0,.01,0,0,0,0,0,0,0,0,0,0,0,0,0,0,0,0,0,0,0,0,0,0,0,0,0,0,0,0,0,0,0,0,0,0,0,.01,0,0,0,0,0,0,0,0,0,0,0,0s0,0,0,0c0,0,0,0,0,0,0,0,0,0,0,.01,0,0,0,0,0,0,0,0,0,0,0,0,0,0,0,0,0,0s0,0,0,0c0,0,0,0,0,0,0,0,0,0,0,.01,0,0,0,0,0,0,0,0,0,0,0,.01,0,0,0,0,0,0,0,0,0,0,0,.01,0,0,0,0,0,0,0,0,0,0,0,.01,0,0,0,0,0,0,0,0,0,0,0,.01,0,0,0,0,0,0,0,0,0,0,0,.01,0,0,0,0,0,0,0,0,0,0,0,.01,0,0,0,0,0,0,0,0,0,0,0,.01,0,0,0,0,0,0,0,0,0,0,0,.02,0,0,0,0,0,0,0,0,0,.01,0,.02,0,0,0,0,0,0,0,0,0,.01,0,.02h0s0,.02,0,.02h0s0,.01,0,.02h0s0,.01,0,.02h0s0,.01,0,.02h0s0,.01,0,.02h0s0,.01,0,.02h0s0,.01,0,.02h0s0,.01,0,.02c0,0,0,0,0,0,0,.02,0,.04,0,.06h0s0,.01,0,.02h0s0,.04,0,.06h0s0,.01,0,.02h0s0,.02,0,.02h0s0,.03,0,.04h0s0,.01,0,.02h0s0,.02,0,.02h0s0,.02,0,.02h0c.02.29.03.59.03.89,0,.47-.03.95-.08,1.44-.06.61-.18,1.26-.27,1.78-.01.08-.02.16-.02.23,0,.42.2.81.54,1.06l.2.12c.19.09.39.14.59.14.37,0,.72-.15.98-.43.15-.16.3-.33.45-.49,1.89-1.99,3.81-3.37,5.85-4.21,1.5-.62,3-.93,4.53-.93s3.08.31,4.68.92c1.53.58,2.97,1.38,4.4,2.43.61.45,1.22.95,1.83,1.5.36.33.72.69,1.04,1.01l.05.05.26.26.15.13c.22.16.49.25.76.26-1.27-2.71-2.87-5.23-5.13-7.19-4.28-3.71-9.68-5.28-15.17-5.28"/>
  <path class="cls-15" d="m243.21,106.78l-.24.02c-.57.11-1.01.57-1.08,1.15-.05.45-.05.93.01,1.42.02.16-.02.31-.09.43,2.29,3.4,7.25,9.42,14.78,11.7,0,0,11.64,6.09,8.7,14.92h0l.09-.24c.91-2.7,1.1-5.18.57-7.6-.53-2.39-1.74-4.59-3.61-6.54-.72-.75-1.52-1.46-2.39-2.1-.42-.31-.87-.6-1.33-.89-.57-.36-1.16-.7-1.81-1.03-2.38-1.22-4.41-2.45-6.19-3.77-.72-.53-1.42-1.09-2.08-1.66-1.59-1.39-2.66-2.58-3.46-3.84-.26-.4-.49-.84-.71-1.26-.09-.18-.23-.33-.39-.45-.22-.17-.5-.26-.79-.26"/>
  <path class="cls-3" d="m228.44,131.38l2.36-1.37,9.92-13.29s-5.43-1.03-8.05-2.22c0,0-2.72,12.41-12.77,22.78l3.7-2.74c1.48-1.04,2.82-1.93,4.84-3.16Z"/>
</svg>