<svg height="1em" style="flex:none;line-height:1" viewBox="0 0 24 24" width="1em" xmlns="http://www.w3.org/2000/svg"><title>LangChain</title><path d="M8.373 14.538c.013-.06.024-.119.038-.171l.061.147c.115.283.229.564.506.723-.012.258-.334.362-.552.33-.048-.115-.115-.23-.255-.166-.143.057-.3-.01-.266-.187.333-.013.407-.377.468-.676zM18.385 9.21c-.318 0-.616.123-.839.346l-.902.9a1.18 1.18 0 00-.343.925l.006.057c.032.265.149.504.337.691.13.13.273.212.447.27a.884.884 0 01-.247.788l-.056.055a1.962 1.962 0 01-.779-.48c-.301-.3-.5-.68-.576-1.096l-.01-.058-.046.037c-.03.025-.06.052-.088.08l-.902.899a1.183 1.183 0 00.84 2.02c.304 0 .607-.116.838-.347l.902-.9a1.183 1.183 0 00-.436-1.948.972.972 0 01.276-.853c.302.103.57.27.796.495.3.3.5.679.575 1.097l.01.058.047-.037c.03-.025.06-.052.088-.08l.902-.9a1.182 1.182 0 00-.84-2.02z" fill="#1C3C3C"></path><path clip-rule="evenodd" d="M17.901 5.92H6.1C2.736 5.92 0 8.648 0 12.002c0 3.354 2.736 6.083 6.099 6.083H17.9c3.363 0 6.099-2.729 6.099-6.083S21.264 5.92 17.901 5.92zm-5.821 9.536c-.195.04-.414.047-.562-.108-.045.101-.136.078-.221.057a.755.755 0 00-.061-.014l-.026.074c-.329.022-.575-.313-.732-.565a4.959 4.959 0 00-.473-.214c-.172-.07-.345-.141-.509-.232a2.281 2.281 0 00-.004.175c-.002.248-.004.51-.227.66-.007.299.236.296.476.293.207-.002.41-.005.447.188-.016.002-.033.002-.05.002-.046 0-.092 0-.127.035-.117.113-.242.064-.372.013-.12-.047-.243-.095-.367-.02-.112.056-.191.11-.262.156a.962.962 0 01-.548.196c-.024-.036-.014-.06.006-.081a.58.58 0 00.043-.056c.019-.029.035-.058.051-.086.054-.095.103-.183.242-.223-.185-.029-.344.056-.5.14l-.004.002-.065.034c-.097.04-.154.009-.212-.024-.082-.045-.168-.093-.376.04-.04-.032-.02-.06.002-.086.091-.11.21-.127.345-.12-.351-.196-.604-.058-.81.055-.182.1-.327.179-.471-.013-.065.018-.102.064-.138.11a.612.612 0 01-.047.056c-.035-.039-.027-.084-.018-.13a.792.792 0 00.008-.056l-.027-.011c-.053-.022-.105-.044-.09-.125-.117-.04-.2.03-.286.095-.054-.042-.01-.096.032-.147.019-.024.037-.046.045-.066.038-.066.103-.068.166-.07.054 0 .108-.002.145-.042.133-.076.297-.037.462.002a1 1 0 00.354.043c.203.026.454-.182.352-.39-.186-.236-.184-.536-.183-.824v-.145c-.016-.11-.172-.236-.328-.363-.12-.097-.24-.194-.298-.284-.16-.18-.285-.387-.409-.593l-.015-.025c-.212-.409-.297-.871-.382-1.332-.103-.554-.205-1.106-.526-1.562-.266.146-.612.077-.841-.12-.12.11-.13.252-.138.403l-.001.014c-.297-.297-.26-.856-.023-1.186.097-.13.213-.237.342-.331.03-.022.04-.042.039-.075.235-1.054 1.836-.85 2.342-.104.167.209.281.448.395.687.137.287.273.573.5.806.22.24.452.469.684.698.359.354.718.708 1.032 1.104.49.596.839 1.294 1.144 1.998.05.093.08.195.11.296.044.152.089.303.2.423.026.036.084.089.149.15.156.145.357.332.289.415a.21.21 0 00.05.06c.032.03.074.06.116.09.122.088.25.18.16.253zm7.778-3.594l-.902.9c-.24.24-.537.418-.859.516l-.017.005-.006.016a2.052 2.052 0 01-.474.731l-.902.9a2.073 2.073 0 01-1.474.608 2.077 2.077 0 01-1.474-3.549l.902-.9c.242-.24.531-.413.859-.514l.016-.005.006-.015c.105-.277.265-.523.475-.734l.902-.9a2.073 2.073 0 011.474-.608c.558 0 1.08.216 1.474.609.394.392.61.914.61 1.47a2.06 2.06 0 01-.61 1.47z" fill="#1C3C3C" fill-rule="evenodd"></path></svg>