<svg xmlns="http://www.w3.org/2000/svg" fill="none" viewBox="0 0 434 80" height="80" width="434">
<path fill="black" d="M0 16C0 7.16344 7.16925 0 16.013 0H64.0518C72.8955 0 80.0648 7.16344 80.0648 16V64C80.0648 72.8366 72.8955 80 64.0518 80H16.013C7.16924 80 0 72.8366 0 64V16Z"></path>
<path fill="url(#paint0_linear_3021_4156)" d="M50.3091 52.6201C45.1552 54.8952 39.5718 53.963 37.4243 53.2126C37.4243 53.726 37.4009 55.3218 37.3072 57.597C37.2135 59.8721 36.4873 61.3099 36.1359 61.7444C36.1749 63.1664 36.2062 66.271 36.0188 67.3138C35.8313 68.3566 35.1598 69.2493 34.8474 69.5652H31.6848C31.9659 68.1433 33.0513 67.2348 33.5589 66.9583C33.84 64.0195 33.2856 61.4679 32.9733 60.5594C32.6609 61.6654 31.8956 64.2328 31.3334 65.6548C30.7711 67.0768 29.9278 68.3803 29.5763 68.8543H27.2337C27.1165 67.4323 27.8974 66.9583 28.405 66.9583C28.6393 66.5238 29.2015 65.1571 29.5763 63.1664C29.9512 61.1756 29.4202 57.439 29.1078 55.8195V50.7241C25.3595 48.7096 23.9539 46.6952 23.0168 44.4437C22.2672 42.6425 22.4702 39.9013 22.6654 38.7558C22.4311 38.3213 21.7481 37.217 21.4941 35.6749C21.1427 33.5419 21.3379 32.0014 21.4941 31.1719C21.2598 30.9349 20.7913 29.7263 20.7913 26.7875C20.7913 23.8488 21.6502 22.3241 22.0797 21.9291V20.6256C20.4398 20.5071 18.7999 19.7961 17.8629 18.8482C16.9258 17.9002 17.6286 16.4782 18.2143 16.0042C18.7999 15.5302 19.3856 15.8857 20.2056 15.6487C21.0255 15.4117 21.7283 15.1747 22.0797 14.4637C22.3608 13.895 21.8064 11.5408 21.494 10.4348C22.8997 10.6244 23.7977 11.8568 24.071 12.4493V10.4348C25.828 11.2643 28.9907 13.2788 30.0449 17.6632C30.8882 21.1707 31.4895 28.5255 31.6847 31.7645C36.1749 31.804 41.8755 31.1211 47.0294 32.2384C51.7148 33.2542 53.8232 35.3194 56.283 35.3194C58.7428 35.3194 60.1484 33.8974 61.9055 35.0824C63.6625 36.2674 64.5996 39.5853 64.3653 42.0738C64.1779 44.0645 62.6473 44.7202 61.9055 44.7992C60.9684 47.9276 61.9055 50.9216 62.4911 52.0276V56.5305C62.7645 56.9255 63.3111 58.1421 63.3111 59.8484C63.3111 61.5548 62.7645 62.6924 62.4911 63.0479C62.9597 65.7022 62.2959 68.4198 61.9055 69.4468H58.7428C59.1177 68.4988 59.758 68.2618 60.0313 68.2618C60.5936 65.3231 60.1875 62.6134 59.9142 61.6259C58.1337 60.5831 56.9858 58.7425 56.6344 57.9525C56.6735 58.624 56.5641 60.4883 55.8145 62.5739C55.0648 64.6595 53.9403 65.8918 53.4718 66.2473V68.7358H50.3091C50.3091 67.219 51.1681 66.9188 51.5976 66.9583C52.1443 65.9708 53.4718 64.4699 53.4718 61.5074C53.4718 59.0077 51.7148 57.834 50.4263 55.5825C49.8141 54.5128 50.1139 53.1731 50.3091 52.6201Z"></path>
<path fill="black" d="M135.714 59.0442V19.7184H144.075V59.0442H135.714Z"></path>
<path fill="black" d="M341.432 59.4682C338.715 59.4682 336.268 58.8676 334.09 57.6662C331.91 56.4296 330.177 54.716 328.891 52.5252C327.641 50.3346 327.016 47.7552 327.016 44.7872C327.016 41.784 327.641 39.187 328.891 36.9964C330.177 34.8056 331.91 33.1096 334.09 31.9084C336.268 30.707 338.715 30.1064 341.432 30.1064C343.861 30.1064 345.988 30.6364 347.81 31.6964C348.646 32.1832 349.396 32.7854 350.059 33.5032V19.7184H358.42V59.0442H350.436V55.7516C349.715 56.6119 348.876 57.3208 347.918 57.8782C346.13 58.9382 343.968 59.4682 341.432 59.4682ZM342.88 52.6842C344.237 52.6842 345.468 52.3662 346.577 51.7302C347.685 51.0942 348.559 50.1932 349.202 49.0272C349.881 47.826 350.221 46.4126 350.221 44.7872C350.221 43.1266 349.881 41.7132 349.202 40.5474C348.559 39.3814 347.685 38.4804 346.577 37.8444C345.468 37.2084 344.237 36.8904 342.88 36.8904C341.486 36.8904 340.234 37.2084 339.128 37.8444C338.02 38.4804 337.126 39.3814 336.448 40.5474C335.805 41.7132 335.484 43.1266 335.484 44.7872C335.484 46.4126 335.805 47.826 336.448 49.0272C337.126 50.1932 338.02 51.0942 339.128 51.7302C340.234 52.3662 341.486 52.6842 342.88 52.6842Z" clip-rule="evenodd" fill-rule="evenodd"></path>
<path fill="black" d="M371.786 57.5601C374.288 58.8319 377.182 59.4679 380.469 59.4679C383.077 59.4679 385.381 59.0793 387.383 58.3019C389.383 57.4893 391.044 56.3411 392.366 54.8571L387.919 50.0871C386.954 51.0057 385.883 51.6947 384.703 52.1541C383.559 52.6133 382.22 52.8431 380.683 52.8431C378.968 52.8431 377.467 52.5427 376.181 51.9421C374.931 51.3061 373.948 50.4051 373.234 49.2391C372.864 48.5848 372.595 47.8781 372.426 47.1191H394.243L394.259 46.9614C394.288 46.6557 394.319 46.3373 394.35 46.0061C394.385 45.5821 394.403 45.2111 394.403 44.8931C394.403 41.8191 393.742 39.1867 392.421 36.9961C391.098 34.7701 389.294 33.0741 387.007 31.9081C384.756 30.7067 382.22 30.1061 379.397 30.1061C376.466 30.1061 373.841 30.7421 371.519 32.0141C369.195 33.2507 367.355 34.9821 365.998 37.2081C364.675 39.3987 364.016 41.9251 364.016 44.7871C364.016 47.6137 364.694 50.1401 366.053 52.3661C367.41 54.5567 369.321 56.2881 371.786 57.5601ZM372.33 42.2961C372.469 41.4128 372.734 40.6178 373.127 39.9111C373.734 38.7803 374.573 37.9147 375.645 37.3141C376.753 36.6781 378.021 36.3601 379.451 36.3601C380.879 36.3601 382.131 36.6781 383.203 37.3141C384.275 37.9147 385.114 38.7627 385.721 39.8581C386.123 40.585 386.393 41.3977 386.529 42.2961H372.33Z" clip-rule="evenodd" fill-rule="evenodd"></path>
<path fill="black" d="M406.633 44.6624L395.54 59.0447H404.651L411.2 50.3106L417.514 59.0447H427.001L415.847 44.4751L426.572 30.5309H417.676L411.411 38.8584L405.294 30.5309H395.916L406.633 44.6624Z"></path>
<path fill="black" d="M315.421 31.4841C313.635 30.5653 311.599 30.1061 309.311 30.1061C306.846 30.1061 304.65 30.6183 302.72 31.6431C301.582 32.2476 300.599 33.0059 299.772 33.918V30.5301H291.787V59.0439H300.148V44.9461C300.148 43.1793 300.433 41.7307 301.005 40.6001C301.612 39.4693 302.433 38.6391 303.471 38.1091C304.543 37.5437 305.74 37.2611 307.061 37.2611C308.919 37.2611 310.349 37.8087 311.348 38.9041C312.386 39.9993 312.903 41.6953 312.903 43.9921V59.0439H321.264V42.7201C321.264 39.8227 320.746 37.4553 319.709 35.6181C318.673 33.7453 317.243 32.3673 315.421 31.4841Z"></path>
<path fill="black" d="M274.79 59.044V21.944H283.473V59.044H274.79Z"></path>
<path fill="black" d="M258.809 55.5013V59.0439H266.634V42.7731C266.634 38.4271 265.419 35.2293 262.99 33.1801C260.561 31.1307 257.149 30.1061 252.754 30.1061C250.467 30.1061 248.216 30.4063 246.001 31.0071C243.785 31.6077 241.892 32.4557 240.32 33.5511L243.321 39.3281C244.357 38.5153 245.607 37.8793 247.073 37.4201C248.574 36.9253 250.091 36.6781 251.628 36.6781C253.879 36.6781 255.541 37.1727 256.613 38.1621C257.719 39.1513 258.273 40.5293 258.273 42.2961H251.628C248.697 42.2961 246.323 42.6671 244.501 43.4091C242.678 44.1157 241.337 45.1051 240.48 46.3771C239.659 47.6491 239.248 49.1331 239.248 50.8291C239.248 52.4543 239.677 53.9207 240.535 55.2281C241.392 56.5353 242.624 57.5777 244.232 58.3549C245.839 59.0969 247.769 59.4679 250.02 59.4679C252.556 59.4679 254.629 58.9911 256.237 58.0371C257.322 57.3931 258.18 56.5478 258.809 55.5013ZM258.273 47.1191H252.54C250.574 47.1191 249.217 47.4371 248.467 48.0731C247.751 48.7091 247.395 49.5041 247.395 50.4581C247.395 51.5181 247.805 52.3661 248.626 53.0021C249.484 53.6027 250.645 53.9031 252.111 53.9031C253.504 53.9031 254.754 53.5851 255.863 52.9491C256.969 52.2777 257.774 51.3061 258.273 50.0341V47.1191Z" clip-rule="evenodd" fill-rule="evenodd"></path>
<path fill="black" d="M221.839 30.1061C224.124 30.1061 226.143 30.5653 227.894 31.4841C229.68 32.3673 231.073 33.7453 232.074 35.6181C233.11 37.4553 233.63 39.8227 233.63 42.7201V59.0439H225.269V43.9921C225.269 41.6953 224.786 39.9993 223.821 38.9041C222.856 37.8087 221.499 37.2611 219.748 37.2611C218.532 37.2611 217.444 37.5437 216.479 38.1091C215.515 38.6391 214.764 39.4517 214.228 40.5471C213.693 41.6423 213.424 43.0381 213.424 44.7341V59.0439H205.063V43.9921C205.063 41.6953 204.581 39.9993 203.617 38.9041C202.686 37.8087 201.348 37.2611 199.596 37.2611C198.381 37.2611 197.293 37.5437 196.327 38.1091C195.363 38.6391 194.612 39.4517 194.076 40.5471C193.54 41.6423 193.272 43.0381 193.272 44.7341V59.0439H184.912V30.5301H192.897V33.8199C193.673 32.9369 194.584 32.2113 195.631 31.6431C197.489 30.6183 199.596 30.1061 201.954 30.1061C204.598 30.1061 206.903 30.7773 208.869 32.1201C209.914 32.8032 210.775 33.6794 211.449 34.7486C212.279 33.7056 213.295 32.8118 214.495 32.0671C216.639 30.7597 219.086 30.1061 221.839 30.1061Z"></path>
<path fill="black" d="M169.52 55.5009V59.0439H177.345V42.7731C177.345 38.4271 176.13 35.2293 173.701 33.1801C171.271 31.1307 167.859 30.1061 163.464 30.1061C161.178 30.1061 158.927 30.4063 156.711 31.0071C154.496 31.6077 152.603 32.4557 151.03 33.5511L154.032 39.3281C155.068 38.5153 156.318 37.8793 157.783 37.4201C159.284 36.9253 160.802 36.6781 162.339 36.6781C164.59 36.6781 166.251 37.1727 167.323 38.1621C168.431 39.1513 168.984 40.5293 168.984 42.2961H162.339C159.409 42.2961 157.033 42.6671 155.211 43.4091C153.389 44.1157 152.049 45.1051 151.191 46.3771C150.369 47.6491 149.959 49.1331 149.959 50.8291C149.959 52.4543 150.387 53.9207 151.245 55.2281C152.102 56.5353 153.335 57.5777 154.943 58.3549C156.55 59.0969 158.48 59.4679 160.731 59.4679C163.268 59.4679 165.34 58.9911 166.948 58.0371C168.033 57.393 168.891 56.5476 169.52 55.5009ZM168.984 47.1191H163.25C161.285 47.1191 159.927 47.4371 159.177 48.0731C158.462 48.7091 158.105 49.5041 158.105 50.4581C158.105 51.5181 158.516 52.3661 159.337 53.0021C160.195 53.6027 161.356 53.9031 162.821 53.9031C164.215 53.9031 165.465 53.5851 166.573 52.9491C167.68 52.2777 168.484 51.3061 168.984 50.0341V47.1191Z" clip-rule="evenodd" fill-rule="evenodd"></path>
<path fill="black" d="M103.906 21.944V59.044H131.4V52.048H112.588V21.944H103.906Z"></path>
<defs>
<linearGradient gradientUnits="userSpaceOnUse" y2="57.9279" x2="71.8865" y1="15.4117" x1="21.1546" id="paint0_linear_3021_4156">
<stop stop-color="#F6DCD9" offset="0.0619804"></stop>
<stop stop-color="#FFA5EA" offset="0.325677"></stop>
<stop stop-color="#45DFF8" offset="0.589257"></stop>
<stop stop-color="#BC8DEB" offset="1"></stop>
</linearGradient>
</defs>
</svg>
