<svg width="75" height="30" viewBox="0 0 75 30" fill="none" xmlns="http://www.w3.org/2000/svg">
<rect x="35.6112" y="9.375" width="8.65231" height="1.875" fill="black"/>
<rect x="65.5907" y="9.375" width="8.65231" height="1.875" fill="black"/>
<rect x="51.6256" y="5.02502" width="2.04923" height="15.6" fill="black"/>
<rect x="47.0718" y="9.375" width="2.04923" height="11.25" fill="black"/>
<rect width="2.04923" height="2.025" transform="matrix(1 0 0 -1 47.0718 7.05005)" fill="black"/>
<rect x="35.3835" y="18.75" width="9.10769" height="1.875" fill="black"/>
<path d="M35.3835 18.75L41.8356 11.25L44.2635 11.25L37.8115 18.75L35.3835 18.75Z" fill="black"/>
<path d="M65.363 18.75L71.8151 11.25L74.243 11.25L67.791 18.75L65.363 18.75Z" fill="black"/>
<rect x="56.1794" y="5.02502" width="2.04923" height="15.6" fill="black"/>
<rect x="65.363" y="18.75" width="9.10769" height="1.875" fill="black"/>
<rect x="60.7333" y="9.375" width="2.04923" height="11.25" fill="black"/>
<rect width="2.04923" height="2.025" transform="matrix(1 0 0 -1 60.7333 7.05005)" fill="black"/>
<path d="M14.7015 20.3956V30H16.5989V18.4988L21.6444 27.1345C22.2153 26.8586 22.7639 26.5445 23.2868 26.1955L17.7636 16.7423L23.8461 18.9299C24.1205 18.3721 24.3383 17.782 24.4922 17.167L21.0738 15.9375H30.8297V14.0625H19.1908L27.9299 9.07664C27.6507 8.51244 27.3328 7.97034 26.9797 7.45368L17.47 12.8792L19.6651 6.91945C19.1018 6.64561 18.5056 6.42761 17.8841 6.27274L16.5989 9.76198V0H14.7015V11.5012L9.65597 2.86546C9.08502 3.14138 8.53643 3.45549 8.01359 3.80442L13.5138 13.2184L7.4674 11.0437C7.19108 11.6007 6.97129 12.1901 6.81542 12.8046L10.3129 14.0625H0.470703V15.9375H12.1095L3.37046 20.9233C3.64969 21.4875 3.96755 22.0296 4.32066 22.5463L13.9039 17.0788L11.6846 23.1044C12.2495 23.3748 12.8469 23.5892 13.4695 23.7404L14.7015 20.3956Z" fill="url(#paint0_linear_3630_423)"/>
<defs>
<linearGradient id="paint0_linear_3630_423" x1="6.92199" y1="3.1875" x2="22.3635" y2="28.5142" gradientUnits="userSpaceOnUse">
<stop stop-color="#9D41FF"/>
<stop offset="0.468794" stop-color="#2858FF"/>
<stop offset="0.770884" stop-color="#29B8FF"/>
<stop offset="1" stop-color="#00F0FF"/>
</linearGradient>
</defs>
</svg>
