<svg xmlns="http://www.w3.org/2000/svg" width="38.813" height="38.813" viewBox="0 0 38.813 38.813">
  <g id="Group_6437" data-name="Group 6437" transform="translate(8.087 8.663)">
    <circle id="Ellipse_1096" data-name="Ellipse 1096" cx="19.406" cy="19.406" r="19.406" transform="translate(-8.087 -8.663)" fill="#954088"/>
    <path id="Path_13195" data-name="Path 13195" d="M13.946,12.49,23.9,7.469a.645.645,0,0,0-.022-1.162L13.867,1.717a2.376,2.376,0,0,0-1.982,0L1.876,6.307a.645.645,0,0,0-.022,1.162L11.8,12.49A2.378,2.378,0,0,0,13.946,12.49Z" transform="translate(-1.5 -1.5)" fill="none" stroke="#fff" stroke-miterlimit="10" stroke-width="2"/>
    <path id="Path_13196" data-name="Path 13196" d="M64.843,31.673a3.283,3.283,0,0,0,.811-2.165V24.521" transform="translate(-45.299 -17.418)" fill="none" stroke="#fff" stroke-linecap="round" stroke-miterlimit="10" stroke-width="2"/>
    <path id="Path_13197" data-name="Path 13197" d="M9.354,24.521v4.988a3.3,3.3,0,0,0,3.3,3.3h8.823" transform="translate(-6.931 -17.418)" fill="none" stroke="#fff" stroke-linecap="round" stroke-miterlimit="10" stroke-width="2"/>
    <path id="Path_13198" data-name="Path 13198" d="M38.368,19.118l5.862,3.136v9.611" transform="translate(-26.993 -13.682)" fill="none" stroke="#fff" stroke-linecap="round" stroke-miterlimit="10" stroke-width="2"/>
    <path id="Path_13199" data-name="Path 13199" d="M54.665,65.728H52.642a.757.757,0,0,1-.757-.757V62.2a1.769,1.769,0,1,1,3.537,0v2.77A.757.757,0,0,1,54.665,65.728Z" transform="translate(-36.339 -42.249)" fill="none" stroke="#fff" stroke-miterlimit="10" stroke-width="2"/>
  </g>
</svg>
